<?xml version="1.0" standalone="no"?>
<!DOCTYPE svg PUBLIC "-//W3C//DTD SVG 20010904//EN"
 "http://www.w3.org/TR/2001/REC-SVG-20010904/DTD/svg10.dtd">
<svg version="1.0" xmlns="http://www.w3.org/2000/svg"
 width="980.000000pt" height="736.000000pt" viewBox="0 0 980.000000 736.000000"
 preserveAspectRatio="xMidYMid meet">

<g transform="translate(0.000000,736.000000) scale(0.100000,-0.100000)"
fill="#000000" stroke="none">
<path d="M0 3680 l0 -3680 4900 0 4900 0 0 3680 0 3680 -4900 0 -4900 0 0
-3680z m5140 3390 c1005 -71 1895 -554 2495 -1355 351 -468 565 -993 652
-1595 25 -178 25 -700 0 -880 -71 -496 -234 -952 -488 -1356 -552 -883 -1460
-1457 -2499 -1580 -172 -21 -572 -24 -725 -6 -803 96 -1472 408 -2023 946
-567 553 -901 1222 -1009 2016 -26 191 -26 649 0 840 87 640 327 1211 715
1696 100 126 331 366 447 464 684 581 1558 871 2435 810z"/>
</g>
</svg>
