<svg xmlns="http://www.w3.org/2000/svg" viewBox="0 0 57 57"><title>Recurso 2</title><g id="Capa_2" data-name="Capa 2"><g id="Capa_1-2" data-name="Capa 1"><path d="M22.1,19.5a1.6,1.6,0,0,0,2.1-.5,2.66,2.66,0,0,1,2.3-1.3,3.67,3.67,0,0,1,2,.8,5.79,5.79,0,0,0,3.1,1.2h.3a5.9,5.9,0,0,0,4.6-2.8,1.69,1.69,0,0,0-.4-2.1,1.69,1.69,0,0,0-2.1.4s-1,1.5-2.2,1.4h-.1a2.73,2.73,0,0,1-1.5-.7,6,6,0,0,0-3.7-1.4,5.88,5.88,0,0,0-4.8,2.8A1.54,1.54,0,0,0,22.1,19.5Z"/><path d="M44.4,18.8a1.76,1.76,0,0,0-.4-.5.52.52,0,0,0-.4-.2h-.9c-.1,0-.2.1-.3.1h-.1c-.1,0-.1,0-.2.1h-.2c-1.5.9-5.7,2.8-5.7,5.6A5.82,5.82,0,0,1,35.1,27a1.84,1.84,0,0,1-1.3.6h-3c.4-2.7.3-5.4-1.7-6-1.3-.4-3.5-1.2-4.4.4a1.6,1.6,0,0,0-.1,1.5l1.7.7c.2.1.3.2.3.4h0a.66.66,0,0,1-.2.7,4.25,4.25,0,0,0-1.7,2.3.1.1,0,0,1-.1.1H23a1.84,1.84,0,0,1-1.3-.6A4.89,4.89,0,0,1,20.6,24c-.1-2.7-4.2-4.7-5.7-5.6h-.1a.31.31,0,0,1-.2-.1h-.1c-.1,0-.2-.1-.3-.1h-.9c-.1,0-.2.1-.4.2a1.76,1.76,0,0,0-.4.5,1.72,1.72,0,0,0,.1,1.4l2.9,5.1c-.5,2.6,1.4,7.7,6.8,9.1a5.73,5.73,0,0,0,.4,1.4l-3.5,1.6h-.1l-2.7-4.4a1.53,1.53,0,0,0-2.6,1.6l5,8a1.46,1.46,0,0,0,1.3.7,2.35,2.35,0,0,0,.8-.2,1.58,1.58,0,0,0,.5-2.1l-.6-1L24,38.7c.1.2.3.4.4.6l-1.6,2.1a1.51,1.51,0,0,0-.1,1.7c.1.1,2.1,3.2,5.7,3.2a7.71,7.71,0,0,0,5.8-3.1,1.5,1.5,0,0,0,0-1.8l-1.6-2.1a5.58,5.58,0,0,0,.5-.8L36.3,40l-.7,1a1.6,1.6,0,0,0,.5,2.1,1.08,1.08,0,0,0,.8.2,1.46,1.46,0,0,0,1.3-.7l5-8A1.53,1.53,0,0,0,40.6,33l-2.8,4.5h0l-3.6-1.7c.1-.4.2-.9.3-1.3,5.4-1.5,7.4-6.5,6.8-9.1l2.9-5.1A2,2,0,0,0,44.4,18.8ZM28.5,39.1c-2.7-1.4-3.5-5.8-3.6-8.6h7.2C32,33,31.3,37.7,28.5,39.1Z"/><path d="M28.6,50.5A1.62,1.62,0,0,1,30,48.9h0a1.54,1.54,0,0,1,1.6,1.4h0a1.54,1.54,0,0,1-1.4,1.6h-.1A1.45,1.45,0,0,1,28.6,50.5Zm-4.8,1a1.65,1.65,0,0,1-1.2-1.8h0a1.65,1.65,0,0,1,1.8-1.2h0a1.65,1.65,0,0,1,1.2,1.8h0a1.51,1.51,0,0,1-1.5,1.2h0C24,51.6,23.9,51.5,23.8,51.5Zm10.7-1.8a1.45,1.45,0,0,1,.9-1.9h0a1.45,1.45,0,0,1,1.9.9h0a1.45,1.45,0,0,1-.9,1.9h0a.9.9,0,0,1-.5.1h0A1.5,1.5,0,0,1,34.5,49.7Zm-16.7-.3a1.49,1.49,0,0,1-.6-2h0a1.49,1.49,0,0,1,2-.6h0a1.49,1.49,0,0,1,.6,2h0a1.56,1.56,0,0,1-1.3.8h0A1.45,1.45,0,0,1,17.8,49.4ZM40,47.3a1.55,1.55,0,0,1,.3-2.1h0a1.55,1.55,0,0,1,2.1.3h0a1.48,1.48,0,0,1-.4,2.1h0a1.61,1.61,0,0,1-.9.3h0A1.54,1.54,0,0,1,40,47.3ZM12.5,45.7a1.55,1.55,0,0,1-.1-2.1h0a1.55,1.55,0,0,1,2.1-.1h0a1.55,1.55,0,0,1,.1,2.1h0a1.61,1.61,0,0,1-1.1.5h0A1.43,1.43,0,0,1,12.5,45.7Zm32.2-2.2a1.38,1.38,0,0,1-.2-2.1h0a1.46,1.46,0,0,1,2.1-.2h0a1.55,1.55,0,0,1,.2,2.1h0a1.35,1.35,0,0,1-1.2.5h0A1.4,1.4,0,0,1,44.7,43.5ZM8.5,40.8A1.6,1.6,0,0,1,9,38.7H9a1.6,1.6,0,0,1,2.1.5h0a1.6,1.6,0,0,1-.5,2.1h0a1.88,1.88,0,0,1-.8.2h0A1.27,1.27,0,0,1,8.5,40.8Zm39.6-2.2a1.51,1.51,0,0,1-.8-2h0a1.51,1.51,0,0,1,2-.8h0a1.51,1.51,0,0,1,.8,2h0a1.42,1.42,0,0,1-1.4.9h0A1.27,1.27,0,0,1,48.1,38.6ZM5.9,34.9a1.43,1.43,0,0,1,1-1.8h0a1.58,1.58,0,0,1,1.9,1h0a1.58,1.58,0,0,1-1,1.9h0c-.1,0-.3.1-.4.1h0A1.72,1.72,0,0,1,5.9,34.9Zm44.2-2a1.55,1.55,0,0,1-1.3-1.7h0a1.55,1.55,0,0,1,1.7-1.3h0a1.55,1.55,0,0,1,1.3,1.7h0a1.5,1.5,0,0,1-1.5,1.3h0C50.2,33,50.2,32.9,50.1,32.9ZM5,28.6H5A1.56,1.56,0,0,1,6.5,27h0A1.54,1.54,0,0,1,8,28.5H8A1.54,1.54,0,0,1,6.5,30h0A1.39,1.39,0,0,1,5,28.6Zm43.8-2.9A1.55,1.55,0,0,1,50.1,24h0a1.55,1.55,0,0,1,1.7,1.3h0A1.55,1.55,0,0,1,50.5,27h-.2A1.51,1.51,0,0,1,48.8,25.7ZM6.9,24a1.43,1.43,0,0,1-1-1.9h0a1.36,1.36,0,0,1,1.8-1h0a1.46,1.46,0,0,1,1,1.9h0a1.47,1.47,0,0,1-1.4,1.1h0C7.2,24.1,7,24,6.9,24Zm40.4-3.7h0a1.54,1.54,0,0,1,.8-2h0a1.51,1.51,0,0,1,2,.8h0a1.54,1.54,0,0,1-.8,2h0a1.27,1.27,0,0,1-.6.1h0A1.42,1.42,0,0,1,47.3,20.3Zm-38.4-2a1.55,1.55,0,0,1-.5-2.1h0a1.58,1.58,0,0,1,2.1-.5h0a1.58,1.58,0,0,1,.5,2.1h0a1.46,1.46,0,0,1-1.3.7h0A.83.83,0,0,1,8.9,18.3Zm35.5-2.8a1.55,1.55,0,0,1,.2-2.1h0a1.55,1.55,0,0,1,2.1.2h0a1.55,1.55,0,0,1-.2,2.1h0a1.69,1.69,0,0,1-1,.3h0A1.07,1.07,0,0,1,44.4,15.5Zm-32-2.1a1.45,1.45,0,0,1,.1-2.1h0a1.45,1.45,0,0,1,2.1.1h0a1.45,1.45,0,0,1-.1,2.1h0a1.43,1.43,0,0,1-1,.4h0A1.27,1.27,0,0,1,12.4,13.4Zm27.9-1.7a1.57,1.57,0,0,1-.4-2.1h0A1.57,1.57,0,0,1,42,9.2h0a1.57,1.57,0,0,1,.4,2.1h0a1.56,1.56,0,0,1-1.2.6h0A1,1,0,0,1,40.3,11.7ZM17,9.7a1.49,1.49,0,0,1,.6-2h0a1.49,1.49,0,0,1,2,.6h0a1.49,1.49,0,0,1-.6,2h0a1.85,1.85,0,0,1-.7.2h0A1.56,1.56,0,0,1,17,9.7Zm18.3-.5a1.45,1.45,0,0,1-.9-1.9h0a1.45,1.45,0,0,1,1.9-.9h0a1.45,1.45,0,0,1,.9,1.9h0a1.5,1.5,0,0,1-1.4,1h0A4.33,4.33,0,0,0,35.3,9.2ZM22.5,7.3a1.48,1.48,0,0,1,1.2-1.8h0a1.56,1.56,0,0,1,1.8,1.2h0a1.56,1.56,0,0,1-1.2,1.8H24A1.59,1.59,0,0,1,22.5,7.3Zm7.4.7h0a1.54,1.54,0,0,1-1.4-1.6h0A1.55,1.55,0,0,1,30.1,5h0a1.48,1.48,0,0,1,1.4,1.6h0A1.55,1.55,0,0,1,29.9,8Z"/><path d="M28.5,57A28.5,28.5,0,1,1,57,28.5,28.55,28.55,0,0,1,28.5,57Zm0-54A25.5,25.5,0,1,0,54,28.5,25.48,25.48,0,0,0,28.5,3Z"/></g></g></svg>